<svg id="Layer_1" data-name="Layer 1" xmlns="http://www.w3.org/2000/svg" width="38mm" height="30mm" viewBox="0 0 107.72 85.04"><defs><style>.cls-1{fill:#353a85;}</style></defs><title>logo-blaa</title><path class="cls-1" d="M50.08,47.27c0-6.17-6.16-12.1-12.39-12a2.78,2.78,0,0,0-1.95.62c-1.88,2.46-3.64,5-5.68,7.93V25.72c0-.78-.07-1.55-.09-2.28H20.41V55.29H19.15c-.81,0-1.62-.08-2.43-.14-4.68-.36-7.44-3.34-7.46-8,0-1.2.07-2.42.12-3.61-3.71,1.86-7.16,4.09-7.85,8.58C.22,60.55,6.78,64.43,14.46,63.68a2,2,0,0,0,1.17-.83c1.7-2.41,3.35-4.87,5-7.3,1.67,4,4.08,6.78,8.05,7.86.66.18,1.81.14,2.12-.27,1.75-2.27,3.33-4.69,5-7.15-4.61-.91-5.78-2.36-5.78-6.79V44c2.06,0,3.68,0,5.29,0,3.34.15,4.95,1.77,5,5.08.06,5.49,0,11,0,16.45,0,.62-.1,1.24-.16,2-1,0-1.91,0-2.78,0s-24.75,0-25.14.48c-2,2.47-3.7,5.12-5.77,8.07H40.3v8.46l.48.24c3-4.34,6.09-8.66,9.09-13a3.18,3.18,0,0,0,.22-1.71C50.1,62.47,50.13,54.88,50.08,47.27Z"/><path class="cls-1" d="M57.64,47.27c0-6.17,6.16-12.1,12.39-12a2.75,2.75,0,0,1,1.94.62c1.88,2.46,3.65,5,5.68,7.93q0-9,0-18.08c0-.78.07-1.55.09-2.28H87.3V55.29h1.26c.82,0,1.63-.08,2.44-.14,4.68-.36,7.44-3.34,7.46-8,0-1.2-.07-2.42-.12-3.61,3.71,1.86,7.16,4.09,7.85,8.58,1.31,8.44-5.26,12.32-12.93,11.57a1.93,1.93,0,0,1-1.17-.83c-1.71-2.41-3.35-4.87-5-7.3-1.67,4-4.08,6.78-8,7.86-.66.18-1.81.14-2.12-.27-1.76-2.27-3.33-4.69-5-7.15,4.6-.91,5.77-2.36,5.77-6.79V44c-2.05,0-3.67,0-5.28,0-3.34.15-5,1.77-5,5.08,0,5.48,0,11,0,16.45,0,.62.1,1.24.16,2,1,0,1.91,0,2.77,0s24.76,0,25.15.48c2,2.47,3.7,5.12,5.77,8.07H67.41v8.46l-.47.24c-3-4.34-6.09-8.66-9.09-13a3.18,3.18,0,0,1-.22-1.71C57.62,62.47,57.58,54.88,57.64,47.27Z"/><path class="cls-1" d="M68,14.9a2.48,2.48,0,0,0-.44-1.41C64.68,9.28,61.76,5.08,58.85.91a3.07,3.07,0,0,0-.72-.67V17.92a3.93,3.93,0,0,1-1.67,3.28,8.09,8.09,0,0,1-5.32,0,3.93,3.93,0,0,1-1.67-3.28V.24a2.84,2.84,0,0,0-.71.67C45.84,5.08,42.92,9.28,40,13.49a2.48,2.48,0,0,0-.44,1.41,56.75,56.75,0,0,0,.18,6.79c.78,6.3,6.73,11,13.25,11h1.54c6.52,0,12.47-4.7,13.25-11A54.74,54.74,0,0,0,68,14.9Z"/></svg>
