<svg id="Layer_1" data-name="Layer 1" xmlns="http://www.w3.org/2000/svg" width="41.94mm" height="6.52mm" viewBox="0 0 118.89 18.49"><defs><style>.cls-1{fill:none;stroke:#fff;}</style></defs><title>treokaiskrift</title><path class="cls-1" d="M.5.79H16.39V5H11.06V17.71H5.83V5H.5Z"/><path class="cls-1" d="M19,17.71V.79H27.7a13,13,0,0,1,3.71.41,4,4,0,0,1,2.06,1.55,4.69,4.69,0,0,1,.79,2.74,4.7,4.7,0,0,1-.6,2.42A4.8,4.8,0,0,1,32,9.57a6.25,6.25,0,0,1-1.83.67,5.53,5.53,0,0,1,1.36.62,5.84,5.84,0,0,1,.84.89,8.34,8.34,0,0,1,.73,1.05l2.53,4.91H29.72l-2.79-5.17A4,4,0,0,0,26,11.23a2.2,2.2,0,0,0-1.28-.39h-.46v6.87ZM24.24,7.64h2.2a7.37,7.37,0,0,0,1.39-.23,1.38,1.38,0,0,0,.85-.53,1.55,1.55,0,0,0,.33-1,1.58,1.58,0,0,0-.52-1.26,3.17,3.17,0,0,0-1.95-.44h-2.3Z"/><path class="cls-1" d="M37.46.79h14V4.4H42.69V7.09h8.14v3.45H42.69v3.33h9v3.84H37.46Z"/><path class="cls-1" d="M54,9.26a8.72,8.72,0,0,1,2.31-6.45A8.69,8.69,0,0,1,62.78.5a8.84,8.84,0,0,1,6.5,2.27,8.52,8.52,0,0,1,2.29,6.35,10.32,10.32,0,0,1-1,4.86,7.14,7.14,0,0,1-2.88,3A9.6,9.6,0,0,1,63,18a10.78,10.78,0,0,1-4.73-.91,7.13,7.13,0,0,1-3-2.88A9.56,9.56,0,0,1,54,9.26Zm5.23,0A5.62,5.62,0,0,0,60.22,13a3.61,3.61,0,0,0,5.2,0,6.34,6.34,0,0,0,.92-3.94,5.24,5.24,0,0,0-1-3.49,3.32,3.32,0,0,0-2.62-1.1,3.14,3.14,0,0,0-2.53,1.12A5.66,5.66,0,0,0,59.27,9.28Z"/><path class="cls-1" d="M74.57.79H79.8V7.18L85.28.79h7L86.05,7.17,92.5,17.71H86.07l-3.57-7-2.7,2.83v4.13H74.57Z"/><path class="cls-1" d="M104.8,14.91H98.87L98,17.71H92.7L99.06.79h5.7l6.36,16.92h-5.47Zm-1.08-3.66-1.87-6.08L100,11.25Z"/><path class="cls-1" d="M113.16.79h5.23V17.71h-5.23Z"/></svg>
